<svg xmlns="http://www.w3.org/2000/svg" xmlns:xlink="http://www.w3.org/1999/xlink" version="1.1" x="0px" y="0px" viewBox="0 0 512 640" style="enable-background:new 0 0 512 512;" xml:space="preserve"><g><g><path d="M322.525,309.479c40.517,0,73.479-32.962,73.479-73.479c0-40.516-32.962-73.479-73.479-73.479    c-40.516,0-73.478,32.962-73.478,73.479C249.047,276.517,282.01,309.479,322.525,309.479z M322.525,182.521    c29.488,0,53.479,23.99,53.479,53.479s-23.99,53.479-53.479,53.479c-29.487,0-53.478-23.99-53.478-53.479    S293.038,182.521,322.525,182.521z"/><path d="M322.525,261.998c14.336,0,25.999-11.663,25.999-25.998s-11.663-25.999-25.999-25.999    c-14.335,0-25.998,11.663-25.998,25.999S308.19,261.998,322.525,261.998z M322.525,230.001c3.308,0,5.999,2.691,5.999,5.999    s-2.691,5.999-5.999,5.999s-5.998-2.691-5.998-5.999S319.218,230.001,322.525,230.001z"/><path d="M230.005,167.997c14.335,0,25.999-11.663,25.999-25.999S244.34,116,230.005,116s-25.999,11.663-25.999,25.999    S215.669,167.997,230.005,167.997z M230.005,136c3.308,0,5.999,2.691,5.999,5.999s-2.691,5.999-5.999,5.999    s-5.999-2.691-5.999-5.999S226.697,136,230.005,136z"/><path d="M178,200.001c0-14.335-11.663-25.999-25.999-25.999s-25.999,11.663-25.999,25.999S137.667,226,152.002,226    S178,214.337,178,200.001z M146.003,200.001c0-3.308,2.691-5.999,5.999-5.999s5.999,2.691,5.999,5.999S155.31,206,152.002,206    S146.003,203.309,146.003,200.001z"/><path d="M210.005,277.997c14.335,0,25.999-11.663,25.999-25.999S224.34,226,210.005,226s-25.999,11.663-25.999,25.999    S195.669,277.997,210.005,277.997z M210.005,246c3.308,0,5.999,2.691,5.999,5.999c0,3.307-2.691,5.999-5.999,5.999    s-5.999-2.691-5.999-5.999C204.006,248.691,206.697,246,210.005,246z"/><path d="M170.005,294.003c-14.335,0-25.999,11.663-25.999,25.998c0,14.336,11.663,25.999,25.999,25.999    s25.999-11.663,25.999-25.999C196.003,305.666,184.34,294.003,170.005,294.003z M170.005,326c-3.308,0-5.999-2.691-5.999-5.999    s2.691-5.998,5.999-5.998s5.999,2.69,5.999,5.998S173.313,326,170.005,326z"/><path d="M240.005,344.003c-14.335,0-25.999,11.663-25.999,25.998c0,14.336,11.663,25.999,25.999,25.999    s25.999-11.663,25.999-25.999C266.004,355.666,254.34,344.003,240.005,344.003z M240.005,376c-3.308,0-5.999-2.691-5.999-5.999    s2.691-5.998,5.999-5.998s5.999,2.69,5.999,5.998S243.313,376,240.005,376z"/><path d="M320.005,334.003c-14.335,0-25.998,11.663-25.998,25.998c0,14.336,11.663,25.999,25.998,25.999    c14.336,0,25.999-11.663,25.999-25.999C346.004,345.666,334.341,334.003,320.005,334.003z M320.005,366    c-3.308,0-5.998-2.691-5.998-5.999s2.69-5.998,5.998-5.998s5.999,2.69,5.999,5.998S323.313,366,320.005,366z"/><path d="M489.766,216.734c-5.119-2.076-10.95,0.388-13.027,5.504c-0.096,0.238-8.895,21.21-30.997,23.761    c-2.336-44.832-20.289-85.594-48.503-116.951c18.424-21.318,14.665-48.326,9.399-60.789c-2.149-5.087-8.027-7.493-13.115-5.345    c-5.087,2.149-7.479,7.99-5.33,13.078c0.399,0.976,8.575,21.666-5.15,38.85c-31.347-28.239-72.109-46.216-116.945-48.574    c-2.088-28.043-23.809-44.451-36.332-49.534c-5.116-2.076-10.95,0.387-13.027,5.504c-2.077,5.117,0.387,10.95,5.504,13.027    c0.238,0.097,21.211,8.902,23.762,30.997c-44.832,2.336-85.594,20.289-116.951,48.503c-21.317-18.424-48.325-14.664-60.789-9.398    c-5.087,2.149-7.469,8.016-5.319,13.104c2.15,5.087,8.018,7.471,13.104,5.319c0.237-0.1,21.353-8.729,38.795,5.176    c-28.238,31.347-46.213,72.108-48.571,116.943c-28.038,2.093-44.451,23.808-49.534,36.33c-2.68,6.603,2.22,13.765,9.262,13.765    c3.95,0,7.692-2.356,9.269-6.241c0.097-0.238,8.894-21.208,30.997-23.761c2.336,44.831,20.289,85.593,48.503,116.95    c-18.424,21.317-14.665,48.325-9.398,60.789c1.613,3.816,5.317,6.11,9.216,6.11c7.099,0,12.005-7.272,9.207-13.896    c-0.1-0.237-8.729-21.354,5.176-38.795c31.346,28.237,72.107,46.213,116.941,48.571c2.089,28.043,23.809,44.451,36.332,49.534    c5.106,2.071,10.944-0.374,13.027-5.504c2.077-5.117-0.387-10.95-5.504-13.027c-0.238-0.097-21.211-8.902-23.762-30.997    c44.827-2.336,85.586-20.285,116.941-48.495c11.993,10.368,25.787,13.714,37.781,13.714c9.327,0,17.564-2.019,23.017-4.322    c5.088-2.15,7.495-8.027,5.346-13.115s-7.993-7.477-13.077-5.33c-0.977,0.4-21.665,8.574-38.851-5.151    c28.239-31.346,46.215-72.106,48.574-116.941c28.043-2.088,44.45-23.812,49.534-36.334    C497.347,224.644,494.883,218.812,489.766,216.734z M86.003,256c0-0.01,0-0.02,0-0.029C86.02,162.248,162.271,86.003,255.998,86    c0.003,0-0.012,0,0.031,0c93.727,0.014,169.975,76.27,169.975,170c0,0.009,0,0.015,0,0.023    c-0.013,93.521-76.046,169.976-170.053,169.976C162.237,425.971,86.003,349.721,86.003,256L86.003,256z"/></g></g><text x="0" y="527" fill="#000000" font-size="5px" font-weight="bold" font-family="'Helvetica Neue', Helvetica, Arial-Unicode, Arial, Sans-serif">Created by Flatart</text><text x="0" y="532" fill="#000000" font-size="5px" font-weight="bold" font-family="'Helvetica Neue', Helvetica, Arial-Unicode, Arial, Sans-serif">from the Noun Project</text></svg>